<svg width="36" height="24" viewBox="0 0 36 24" fill="none" xmlns="http://www.w3.org/2000/svg">
<path d="M34.6047 9.74064L20.825 0.96564C20.45 0.725904 20.0176 0.591229 19.5728 0.575676C19.128 0.560124 18.6872 0.664265 18.2964 0.877225C17.9056 1.09019 17.5791 1.40416 17.3511 1.78635C17.1231 2.16855 17.0018 2.60496 17 3.05001V8.87814L4.575 0.96564C4.20003 0.725904 3.76757 0.591229 3.32279 0.575676C2.878 0.560124 2.4372 0.664265 2.0464 0.877225C1.6556 1.09019 1.32913 1.40416 1.10109 1.78635C0.873056 2.16855 0.751805 2.60496 0.75 3.05001V20.6C0.752311 21.0449 0.873876 21.481 1.10203 21.8629C1.33018 22.2447 1.65657 22.5585 2.0472 22.7713C2.43782 22.9842 2.87838 23.0884 3.32297 23.0731C3.76757 23.0578 4.19993 22.9236 4.575 22.6844L17 14.7719V20.6C17.0023 21.0449 17.1239 21.481 17.352 21.8629C17.5802 22.2447 17.9066 22.5585 18.2972 22.7713C18.6878 22.9842 19.1284 23.0884 19.573 23.0731C20.0176 23.0578 20.4499 22.9236 20.825 22.6844L34.6047 13.9094C34.9558 13.6866 35.2449 13.3787 35.4452 13.0143C35.6455 12.6499 35.7505 12.2408 35.7505 11.825C35.7505 11.4092 35.6455 11.0001 35.4452 10.6357C35.2449 10.2713 34.9558 9.96346 34.6047 9.74064ZM3.25 20.5656V3.08595L16.9719 11.825L3.25 20.5656ZM19.5 20.5656V3.08595L33.2219 11.825L19.5 20.5656Z" fill="#FD0054"/>
</svg>
